<svg width="1000" height="1000" viewBox="0 0 1000 1000" fill="none" xmlns="http://www.w3.org/2000/svg">
<rect width="1000" height="1000" fill="white"/>
<path d="M856.302 644.576H848.112C842.995 544.886 795.959 452.959 717.275 390.172C709.422 383.91 698.006 385.191 691.716 393.035C685.463 400.879 686.736 412.322 694.579 418.584C764.565 474.446 806.603 556.012 811.674 644.576H440.657C430.623 644.576 422.479 652.719 422.479 662.754C422.479 672.788 430.623 680.932 440.657 680.932H830.398H856.302C865.318 680.932 872.662 688.267 872.662 697.283C872.662 706.3 865.318 713.644 856.302 713.644H143.717C134.7 713.644 127.356 706.3 127.356 697.283C127.356 688.267 134.7 680.932 143.717 680.932H169.621H347.731C357.765 680.932 365.909 672.788 365.909 662.754C365.909 652.719 357.765 644.576 347.731 644.576H188.326C197.779 480.854 333.961 350.544 500.009 350.544C544.755 350.544 587.946 359.805 628.384 378.065C637.545 382.201 648.307 378.129 652.433 368.976C656.569 359.823 652.506 349.062 643.353 344.926C618.058 333.511 591.791 325.358 564.824 320.286V314.805C564.824 279.067 535.748 250 500.009 250C464.271 250 435.204 279.076 435.204 314.805V320.313C279.662 349.707 160.277 482.663 151.924 644.576H143.717C114.65 644.576 91 668.225 91 697.283C91 726.35 114.65 750 143.717 750H856.302C885.369 750 909.018 726.35 909.018 697.283C909.018 668.225 885.369 644.576 856.302 644.576ZM471.56 314.814C471.56 299.127 484.321 286.365 500.009 286.365C515.706 286.365 528.467 299.127 528.467 314.814V315.441C519.042 314.687 509.571 314.187 500.009 314.187C490.42 314.187 480.949 314.687 471.56 315.441V314.814Z" fill="url(#paint0_linear_721_603)"/>
<path d="M260.121 580.643C257.785 580.643 255.404 580.18 253.113 579.225C243.851 575.344 239.489 564.701 243.37 555.439C275.236 479.318 338.632 421.62 417.326 397.153C426.915 394.181 437.103 399.525 440.076 409.114C443.057 418.703 437.703 428.883 428.114 431.864C359.728 453.132 304.612 503.295 276.899 569.482C273.982 576.444 267.228 580.643 260.121 580.643Z" fill="url(#paint1_linear_721_603)"/>
<path d="M747.523 601.329C739.834 601.329 732.69 596.412 730.218 588.705C721.674 562.119 708.658 537.388 691.534 515.192C685.399 507.248 686.863 495.832 694.815 489.697C702.75 483.562 714.175 485.026 720.31 492.988C740.016 518.519 754.985 546.977 764.829 577.58C767.901 587.141 762.647 597.385 753.086 600.457C751.241 601.048 749.368 601.329 747.523 601.329Z" fill="url(#paint2_linear_721_603)"/>
<path d="M456.988 525.418L453.226 576.034V576.718C453.226 578.884 454.024 580.309 455.62 580.993L466.222 585.439L464.512 601H421.933L420.223 585.781L428.089 580.993L437.836 514.987C437.95 514.189 438.007 513.22 438.007 512.08C438.007 510.712 437.665 509.686 436.981 509.002C436.411 508.318 435.271 507.463 433.561 506.437L425.695 501.991L426.721 485.746H475.798L500.251 565.432L524.533 485.746H570.361L571.045 503.701L560.101 506.437L569.335 573.469C569.677 575.749 570.133 577.516 570.703 578.77C571.387 580.024 572.869 582.076 575.149 584.926L578.74 589.543L577.714 601H526.756L525.217 585.268L539.239 581.677L533.425 524.392L511.537 601.684L482.296 604.249L456.988 525.418Z" fill="url(#paint3_linear_721_603)"/>
<defs>
<linearGradient id="paint0_linear_721_603" x1="500.009" y1="250" x2="500.009" y2="750" gradientUnits="userSpaceOnUse">
<stop stop-color="#FF86D6"/>
<stop offset="1" stop-color="#FFA14A"/>
</linearGradient>
<linearGradient id="paint1_linear_721_603" x1="341.426" y1="396.331" x2="341.426" y2="580.643" gradientUnits="userSpaceOnUse">
<stop stop-color="#FF86D6"/>
<stop offset="1" stop-color="#FFA14A"/>
</linearGradient>
<linearGradient id="paint2_linear_721_603" x1="726.724" y1="485.906" x2="726.724" y2="601.329" gradientUnits="userSpaceOnUse">
<stop stop-color="#FF86D6"/>
<stop offset="1" stop-color="#FFA14A"/>
</linearGradient>
<linearGradient id="paint3_linear_721_603" x1="418" y1="543.5" x2="581" y2="543.5" gradientUnits="userSpaceOnUse">
<stop stop-color="#FF9F5A"/>
<stop offset="1" stop-color="#FF87D6"/>
</linearGradient>
</defs>
</svg>
